<svg width="36" height="25" viewBox="0 0 36 25" fill="none" xmlns="http://www.w3.org/2000/svg">
<path d="M0 2.41503V22.6297C0 23.9714 1.08 25.0447 2.43 25.0447H33.615C34.965 25.0447 36.045 23.9714 36.045 22.6297V2.41503C36.045 1.07335 34.965 0 33.615 0H2.43C1.08 0 0 1.07335 0 2.41503ZM33.57 0.894454C34.425 0.894454 35.1 1.5653 35.1 2.41503V22.6297C35.1 23.4794 34.425 24.1503 33.57 24.1503H2.43C1.575 24.1503 0.9 23.4794 0.9 22.6297V2.41503C0.9 1.5653 1.575 0.894454 2.43 0.894454H33.57Z" fill="black"/>
</svg>
