<svg width="26" height="26" viewBox="0 0 26 26" fill="none" xmlns="http://www.w3.org/2000/svg">
<path d="M23.171 26H2.87392C1.30225 26 0 25.057 0 23.8895V2.11054C0 0.943005 1.30225 0 2.87392 0H23.171C24.7427 0 26.0449 0.943005 26.0449 2.11054V23.8446C26 25.057 24.7427 26 23.171 26ZM2.87392 0.8981C1.7962 0.8981 0.8981 1.48187 0.8981 2.11054V23.8446C0.8981 24.5181 1.7962 25.057 2.87392 25.057H23.171C24.2487 25.057 25.1468 24.4732 25.1468 23.8446V2.11054C25.1468 1.43696 24.2487 0.8981 23.171 0.8981H2.87392Z" fill="black"/>
</svg>
