<svg width="36" height="26" viewBox="0 0 36 26" fill="none" xmlns="http://www.w3.org/2000/svg">
<g clip-path="url(#clip0)">
<path d="M28.6196 6.16501L32.4446 12.24H18.6746C18.4046 12.24 18.2246 12.42 18.2246 12.69C18.2246 12.96 18.4046 13.14 18.6746 13.14H32.4446L28.6196 19.215C28.4846 19.44 28.5296 19.71 28.7546 19.845C28.9796 19.98 29.2496 19.935 29.3846 19.71L33.6596 12.96C33.7046 12.87 33.7496 12.825 33.7496 12.735C33.7496 12.645 33.7046 12.555 33.6596 12.51L29.3846 5.76001C29.2496 5.44501 28.9796 5.40001 28.7996 5.53501C28.5746 5.67001 28.5296 5.94001 28.6196 6.16501Z" fill="black"/>
<path d="M7.69445 19.215L3.86945 13.14H17.6395C17.9095 13.14 18.0895 12.96 18.0895 12.69C18.0895 12.42 17.9095 12.24 17.6395 12.24H3.86945L7.69445 6.16504C7.82945 5.94004 7.78445 5.67004 7.55945 5.53504C7.33445 5.40004 7.06445 5.44504 6.92945 5.67004L2.65445 12.42C2.60945 12.51 2.56445 12.555 2.56445 12.645C2.56445 12.735 2.60945 12.825 2.65445 12.87L6.92945 19.62C7.06445 19.845 7.33445 19.89 7.55945 19.755C7.73945 19.665 7.82945 19.395 7.69445 19.215Z" fill="black"/>
<path d="M0 2.43V22.77C0 24.12 1.08 25.2 2.43 25.2H33.615C34.965 25.2 36.045 24.12 36.045 22.77V2.43C36.045 1.08 34.965 0 33.615 0H2.43C1.08 0 0 1.08 0 2.43ZM33.57 0.9C34.425 0.9 35.1 1.575 35.1 2.43V22.77C35.1 23.625 34.425 24.3 33.57 24.3H2.43C1.575 24.3 0.9 23.625 0.9 22.77V2.43C0.9 1.575 1.575 0.9 2.43 0.9H33.57Z" fill="black"/>
<path d="M24.5255 17.64L18.4505 21.465V7.695C18.4505 7.425 18.2705 7.245 18.0005 7.245C17.7305 7.245 17.5505 7.425 17.5505 7.695V21.465L11.4755 17.64C11.2505 17.505 10.9805 17.55 10.8455 17.775C10.7105 18 10.7555 18.27 10.9805 18.405L17.7305 22.68C17.8205 22.725 17.8655 22.77 17.9555 22.77C18.0455 22.77 18.1355 22.725 18.1805 22.68L24.9305 18.405C25.1555 18.27 25.2005 18 25.0655 17.775C25.0205 17.595 24.7505 17.505 24.5255 17.64Z" fill="black"/>
<path d="M11.4753 7.24499L17.5503 3.41999V17.19C17.5503 17.46 17.7303 17.64 18.0003 17.64C18.2703 17.64 18.4503 17.46 18.4503 17.19V3.41999L24.5253 7.24499C24.7503 7.37999 25.0203 7.33499 25.1553 7.10999C25.2903 6.88499 25.2453 6.61499 25.0203 6.47999L18.2703 2.20499C18.1803 2.15999 18.1353 2.11499 18.0453 2.11499C17.9553 2.11499 17.8653 2.15999 17.8203 2.20499L11.0703 6.47999C10.8453 6.61499 10.8003 6.88499 10.9353 7.10999C10.9803 7.28999 11.2503 7.37999 11.4753 7.24499Z" fill="black"/>
</g>
<defs>
<clipPath id="clip0">
<rect width="36" height="25.155" fill="white"/>
</clipPath>
</defs>
</svg>
