<svg width="22" height="30" viewBox="0 0 22 30" fill="none" xmlns="http://www.w3.org/2000/svg">
<path d="M18.8241 1.34473H3.21099C2.17472 1.34473 1.3457 2.17231 1.3457 3.2068V27.1033C1.3457 28.1378 2.17472 28.9654 3.21099 28.9654H18.8241C19.8604 28.9654 20.6894 28.1378 20.6894 27.1033V3.2068C20.6549 2.17231 19.8258 1.34473 18.8241 1.34473Z" stroke="#1D2019" stroke-width="1.5" stroke-miterlimit="10"/>
<path d="M16.51 4.31055H5.5255C4.80011 4.31055 4.21289 4.96572 4.21289 5.75882V24.5864C4.21289 25.3795 4.80011 26.0347 5.5255 26.0347H16.5445C17.2699 26.0347 17.8571 25.3795 17.8571 24.5864V5.75882C17.8226 4.96572 17.2353 4.31055 16.51 4.31055Z" stroke="#1D2019" stroke-width="1.5" stroke-miterlimit="10"/>
</svg>
