<svg width="22" height="30" viewBox="0 0 22 30" fill="none" xmlns="http://www.w3.org/2000/svg">
<path d="M18.8241 1.34521H3.21099C2.17472 1.34521 1.3457 2.17423 1.3457 3.2105V27.1483C1.3457 28.1846 2.17472 29.0136 3.21099 29.0136H18.8241C19.8604 29.0136 20.6894 28.1846 20.6894 27.1483V3.2105C20.6549 2.17423 19.8258 1.34521 18.8241 1.34521Z" stroke="#1D2019" stroke-width="1.5" stroke-miterlimit="10"/>
<path d="M13.7802 11.1553H8.11529C7.73532 11.1553 7.45898 11.3625 7.45898 11.6389V17.6838C7.45898 17.9256 7.76987 18.1674 8.11529 18.1674H13.7802C14.1602 18.1674 14.4365 17.9601 14.4365 17.6838V11.6043C14.4365 11.3625 14.1257 11.1553 13.7802 11.1553Z" stroke="#1D2019" stroke-width="1.5" stroke-miterlimit="10"/>
</svg>
