<svg width="22" height="30" viewBox="0 0 22 30" fill="none" xmlns="http://www.w3.org/2000/svg">
<path d="M18.8241 1.34131H3.21099C2.17472 1.34131 1.3457 2.16082 1.3457 3.18521V26.8486C1.3457 27.873 2.17472 28.6925 3.21099 28.6925H18.8241C19.8604 28.6925 20.6894 27.873 20.6894 26.8486V3.18521C20.6549 2.16082 19.8258 1.34131 18.8241 1.34131Z" stroke="#1D2019" stroke-width="1.5" stroke-miterlimit="10"/>
<path d="M14.6102 7.72656H7.3909C6.90731 7.72656 6.52734 8.17047 6.52734 8.75095V21.9997C6.52734 22.5802 6.90731 23.0241 7.3909 23.0241H14.6102C15.0938 23.0241 15.4738 22.5802 15.4738 21.9997V8.75095C15.4738 8.20461 15.0593 7.72656 14.6102 7.72656Z" stroke="#1D2019" stroke-width="1.5" stroke-miterlimit="10"/>
</svg>
