<svg width="22" height="30" viewBox="0 0 22 30" fill="none" xmlns="http://www.w3.org/2000/svg">
<path d="M18.8241 1.34619H3.21099C2.17472 1.34619 1.3457 2.17703 1.3457 3.21559V27.2061C1.3457 28.2447 2.17472 29.0755 3.21099 29.0755H18.8241C19.8604 29.0755 20.6894 28.2447 20.6894 27.2061V3.21559C20.6549 2.17703 19.8258 1.34619 18.8241 1.34619Z" stroke="#1D2019" stroke-width="1.5" stroke-miterlimit="10"/>
<path d="M14.4031 6.71191H7.25284C6.80379 6.71191 6.42383 6.95424 6.42383 7.23119V14.1203C6.42383 14.3972 6.80379 14.6395 7.25284 14.6395H14.3686C14.8176 14.6395 15.1976 14.3972 15.1976 14.1203V7.26581C15.2321 6.95424 14.8522 6.71191 14.4031 6.71191Z" stroke="#1D2019" stroke-width="1.5" stroke-miterlimit="10"/>
</svg>
