<svg width="22" height="18" viewBox="0 0 22 18" fill="none" xmlns="http://www.w3.org/2000/svg">
<path d="M18.9606 4.90148C18.9606 5.05911 18.9606 5.21675 18.9606 5.4532C18.9606 10.8916 14.862 17.1182 7.29553 17.1182C5.00982 17.1182 2.80292 16.4089 0.990112 15.3054C1.30538 15.3842 1.62065 15.3842 1.93593 15.3842C3.82755 15.3842 5.64036 14.7537 7.05908 13.6502C5.24627 13.6502 3.74873 12.468 3.19701 10.8128C3.43346 10.8916 3.66992 10.8916 3.98519 10.8916C4.37928 10.8916 4.69455 10.8128 5.08863 10.734C3.19701 10.3399 1.77829 8.68473 1.77829 6.71429V6.63547C2.33001 6.95074 2.96056 7.10838 3.66992 7.10838C2.56647 6.39902 1.85711 5.13793 1.85711 3.71921C1.85711 2.93104 2.09356 2.30049 2.40883 1.66995C4.45809 4.1133 7.45317 5.76847 10.8423 5.92611C10.7635 5.61084 10.7635 5.29557 10.7635 4.9803C10.7635 2.69458 12.5763 0.881775 14.862 0.881775C16.0443 0.881775 17.0689 1.35468 17.8571 2.14286C18.8029 1.98522 19.6699 1.59113 20.4581 1.11823C20.1428 2.06404 19.5123 2.85222 18.6453 3.40394C19.5123 3.32512 20.3005 3.08867 21.0098 2.7734C20.4581 3.64039 19.7487 4.34976 18.9606 4.90148Z" fill="white"/>
</svg>
