<svg width="25" height="37" viewBox="0 0 25 37" fill="none" xmlns="http://www.w3.org/2000/svg">
<path d="M22.6297 0H2.41503C1.07335 0 0 1.11 0 2.4975V34.5487C0 35.9362 1.07335 37.0462 2.41503 37.0462H22.6297C23.9714 37.0462 25.0447 35.9362 25.0447 34.5487V2.4975C25 1.11 23.9267 0 22.6297 0ZM24.1055 34.5025C24.1055 35.3812 23.4347 36.075 22.585 36.075H2.41503C1.5653 36.075 0.894454 35.3812 0.894454 34.5025V2.4975C0.894454 1.61875 1.5653 0.925 2.41503 0.925H22.6297C23.4794 0.925 24.1503 1.61875 24.1503 2.4975V34.5025H24.1055Z" fill="black"/>
</svg>
