<svg width="22" height="30" viewBox="0 0 22 30" fill="none" xmlns="http://www.w3.org/2000/svg">
<path d="M18.8241 1.34277H3.21099C2.17472 1.34277 1.3457 2.16594 1.3457 3.19491V26.964C1.3457 27.9929 2.17472 28.8161 3.21099 28.8161H18.8241C19.8604 28.8161 20.6894 27.9929 20.6894 26.964V3.19491C20.6549 2.16594 19.8258 1.34277 18.8241 1.34277Z" stroke="#1D2019" stroke-width="1.5" stroke-miterlimit="10"/>
<path d="M14.0215 10.6724H8.0457C7.66574 10.6724 7.32031 10.9811 7.32031 11.324V19.7958C7.32031 20.1731 7.63119 20.4475 8.0457 20.4475H14.0215C14.4015 20.4475 14.7469 20.1388 14.7469 19.7958V11.324C14.7124 10.9468 14.4015 10.6724 14.0215 10.6724Z" stroke="#1D2019" stroke-width="1.5" stroke-miterlimit="10"/>
</svg>
