<svg width="26" height="26" viewBox="0 0 26 26" fill="none" xmlns="http://www.w3.org/2000/svg">
<path d="M12.9583 15.4117C10.5973 15.4117 8.66553 13.4799 8.66553 11.1189C8.66553 8.75791 10.5973 6.82617 12.9583 6.82617C15.3193 6.82617 17.251 8.75791 17.251 11.1189C17.251 13.5106 15.3193 15.4117 12.9583 15.4117Z" stroke="#1D2019" stroke-width="1.5" stroke-miterlimit="10" stroke-linecap="round" stroke-linejoin="round"/>
<path d="M20.011 22.5561C20.011 22.5254 20.011 22.5254 20.011 22.4948C20.011 18.6006 16.8528 15.4424 12.9586 15.4424C9.06449 15.4424 5.90625 18.6006 5.90625 22.4948C5.90625 22.5254 5.90625 22.5254 5.90625 22.5561" stroke="#1D2019" stroke-width="1.5" stroke-miterlimit="10" stroke-linecap="round" stroke-linejoin="round"/>
<path d="M12.9584 24.9168C19.5628 24.9168 24.9168 19.5628 24.9168 12.9584C24.9168 6.35395 19.5628 1 12.9584 1C6.35395 1 1 6.35395 1 12.9584C1 19.5628 6.35395 24.9168 12.9584 24.9168Z" stroke="#1D2019" stroke-width="1.5" stroke-miterlimit="10" stroke-linecap="round" stroke-linejoin="round"/>
</svg>
